<svg id="Layer_2" xmlns="http://www.w3.org/2000/svg" viewBox="0 0 1703.31 535.6"><defs><style>
      .cls-1 {
        fill: #fff;
      }

      .cls-2 {
        fill: #fbb03b;
      }

      .cls-3 {
        fill: #f27024;
      }
    </style></defs><g id="Layer_10"><g><path class="cls-1" d="M125.67,428.34c-39.15,0-70.27-13.09-92.48-38.91C11.17,363.84,0,334.47,0,302.15c0-30.4,9.47-57.88,28.14-81.68,23.77-30.39,56.01-45.8,95.83-45.8s74.1,15.76,98.58,46.85c17.39,21.95,26.36,49.63,26.66,82.28l.05,5.23H41.22c1.5,23.04,9.58,42.3,24.08,57.31,15.74,16.28,34.65,24.2,57.81,24.2,11.12,0,22.08-1.96,32.6-5.83,10.49-3.85,19.51-9.02,26.82-15.36,7.36-6.39,8.83-7.95,14.56-15.39l2.6-4.32c5.42-9.02,16.94-12.25,26.26-7.35h0c9.62,5.06,13.39,16.91,8.46,26.6l-1.53,3c-8.02,11.54-10.34,14.39-21.53,24.68-11.22,10.32-24.02,18.29-38.05,23.68-14.02,5.38-30.04,8.1-47.63,8.1ZM204.47,272.93c-3.65-12.13-8.55-22.08-14.6-29.64-7.06-8.82-16.57-16.06-28.27-21.51-11.75-5.46-24.27-8.23-37.2-8.23-21.29,0-39.83,6.92-55.1,20.58-9.88,8.81-17.76,21.84-23.46,38.8h158.64Z"></path><rect class="cls-1" x="288.28" y="97.26" width="40.15" height="331.08" rx="20.07" ry="20.07"></rect><path class="cls-1" d="M490.58,428.34c-39.15,0-70.27-13.09-92.48-38.91-22.02-25.59-33.19-54.96-33.19-87.28,0-30.4,9.47-57.88,28.14-81.68,23.77-30.39,56.01-45.8,95.83-45.8s74.1,15.76,98.58,46.85c17.39,21.95,26.36,49.63,26.66,82.28l.05,5.23h-208.03c1.5,23.04,9.58,42.3,24.08,57.31,15.74,16.28,34.65,24.2,57.81,24.2,11.12,0,22.08-1.96,32.6-5.83,10.49-3.85,19.51-9.02,26.82-15.36,7.36-6.39,8.83-7.95,14.56-15.39l2.6-4.32c5.42-9.02,16.94-12.25,26.26-7.35h0c9.62,5.06,13.39,16.91,8.46,26.6l-1.53,3c-8.02,11.54-10.34,14.39-21.53,24.68-11.22,10.32-24.02,18.29-38.05,23.68-14.02,5.38-30.04,8.1-47.63,8.1ZM569.37,272.93c-3.65-12.13-8.55-22.08-14.6-29.64-7.06-8.82-16.57-16.06-28.27-21.51-11.75-5.46-24.27-8.23-37.2-8.23-21.29,0-39.83,6.92-55.1,20.58-9.88,8.81-17.76,21.84-23.46,38.8h158.64Z"></path><path class="cls-1" d="M751.92,422.82l-96-208.47c-5.97-12.97,3.5-27.77,17.78-27.77h0c7.64,0,14.59,4.45,17.78,11.39l69.08,150.01,68.21-149.93c3.18-6.99,10.15-11.47,17.82-11.47h.22c14.26,0,23.74,14.76,17.8,27.73l-95.43,208.49c-1.55,3.38-4.92,5.54-8.63,5.54h0c-3.71,0-7.08-2.16-8.63-5.52Z"></path><g><path class="cls-2" d="M1052.79,311.55c-30.67,0-56.25,33.01-62.14,66.95,5.07-11.19,11.63-17.94,18.79-17.94,15.94,0,23.38,33.67,28.84,74.37,1.51,11.28,12.67,86.53,13.56,100.67.05,0,.11,0,.16,0,1.04-16.27,10.83-87.61,12.64-100.66,5.78-41.56,12.93-74.37,28.87-74.37,9.09,0,17.21,10.84,22.5,27.76-2.22-38.69-29.66-76.77-63.22-76.77Z"></path><path class="cls-3" d="M1053.33,46.78c60,50.38,96.73,131.67,97.74,218.86-26.55-32.52-60.86-50.27-97.76-50.27s-71.19,17.74-97.74,50.24c1.01-87.19,37.75-168.47,97.75-218.83M1053.33,0c-80.86,53.76-135.27,154.25-135.27,269.32,0,28.59,3.36,56.29,9.66,82.6,4.47,18.64,10.39,36.6,17.66,53.67,2.54-84.98,49.89-152.72,107.94-152.72s105.41,67.76,107.94,152.76c10.02-23.52,17.51-48.73,22.09-75.13,3.46-19.78,5.25-40.25,5.25-61.19C1188.59,154.25,1134.19,53.78,1053.33,0h0Z"></path></g><path class="cls-3" d="M1246.12,390.85l-15.96-370.06C1229.55,9.49,1238.55,0,1249.87,0h0c11.31,0,20.31,9.49,19.71,20.79l-15.96,370.06h-7.5Z"></path><path class="cls-1" d="M1333.96,408.27v-185.58h-40.62v-36.1h40.62v-69.25c0-11.09,8.99-20.07,20.07-20.07h0c11.09,0,20.07,8.99,20.07,20.07v69.25h62.21v36.1h-62.21v185.58c0,11.09-8.99,20.07-20.07,20.07h0c-11.09,0-20.07-8.99-20.07-20.07Z"></path><path class="cls-1" d="M1579.72,428.34c-39.15,0-70.26-13.09-92.48-38.91-22.02-25.59-33.18-54.95-33.18-87.28,0-30.4,9.47-57.88,28.14-81.68,23.77-30.39,56.01-45.8,95.83-45.8s74.1,15.76,98.59,46.85c17.39,21.94,26.36,49.63,26.66,82.28l.05,5.23h-208.03c1.5,23.04,9.59,42.3,24.08,57.31,15.74,16.28,34.64,24.2,57.81,24.2,11.12,0,22.09-1.96,32.6-5.83,10.49-3.85,19.51-9.02,26.82-15.36,7.36-6.39,9.22-7.53,15.54-17.02l1.62-2.69c5.42-9.02,16.94-12.25,26.26-7.35h0c9.62,5.06,13.39,16.91,8.46,26.6l-1.36,2.67c-6.09,8.44-10.51,14.72-21.7,25.01-11.22,10.32-24.02,18.29-38.06,23.68-14.02,5.38-30.04,8.1-47.63,8.1ZM1658.52,272.93c-3.65-12.13-8.55-22.08-14.6-29.64-7.06-8.82-16.57-16.06-28.27-21.51-11.76-5.46-24.27-8.23-37.2-8.23-21.29,0-39.83,6.92-55.1,20.58-9.89,8.81-17.76,21.85-23.46,38.8h158.64Z"></path></g></g></svg>
